<?xml version="1.0" standalone="no"?>
<!DOCTYPE svg PUBLIC "-//W3C//DTD SVG 1.0//EN" "http://www.w3.org/TR/2001/REC-SVG-20010904/DTD/svg10.dtd">
<svg xmlns="http://www.w3.org/2000/svg" xmlns:xlink="http://www.w3.org/1999/xlink" id="body_1" width="600" height="280">

<g transform="matrix(0.5 0 0 0.5 0 0)">
	<g transform="matrix(0.13333333 0 -0 -0.13333334 0 560)">
	</g>
    <path transform="matrix(0.13333333 0 -0 -0.13333334 0 560)"  d="M1790 3581L1790 3532L1760 3543C 1713 3561 1678 3543 1660 3492C 1647 3455 1647 3445 1660 3408C 1678 3357 1713 3339 1760 3357C 1777 3363 1790 3364 1790 3359C 1790 3354 1797 3350 1805 3350C 1818 3350 1820 3372 1820 3490C 1820 3608 1818 3630 1805 3630C 1794 3630 1790 3618 1790 3581zM1770 3510C 1796 3484 1797 3421 1772 3390C 1757 3372 1747 3368 1726 3374C 1661 3390 1671 3530 1737 3530C 1744 3530 1759 3521 1770 3510z" stroke="none" fill="#000000" fill-rule="nonzero" />
	<g transform="matrix(0.13333333 0 -0 -0.13333334 0 560)">
	</g>
    <path transform="matrix(0.13333333 0 -0 -0.13333334 0 560)"  d="M2100 3490C 2100 3372 2102 3350 2115 3350C 2123 3350 2130 3355 2130 3360C 2130 3367 2136 3367 2149 3360C 2181 3343 2225 3348 2246 3371C 2273 3401 2273 3499 2246 3529C 2226 3551 2166 3558 2155 3540C 2141 3517 2130 3533 2130 3580C 2130 3618 2126 3630 2115 3630C 2102 3630 2100 3608 2100 3490zM2224 3508C 2247 3476 2244 3414 2220 3390C 2196 3366 2181 3365 2154 3384C 2127 3404 2127 3496 2154 3516C 2182 3536 2207 3533 2224 3508z" stroke="none" fill="#000000" fill-rule="nonzero" />
	<g transform="matrix(0.13333333 0 -0 -0.13333334 0 560)">
	</g>
    <path transform="matrix(0.13333333 0 -0 -0.13333334 0 560)"  d="M551 3584C 539 3569 530 3552 530 3546C 530 3521 563 3490 616 3466C 662 3445 671 3437 668 3418C 664 3386 624 3369 571 3376C 537 3381 528 3380 532 3369C 537 3354 608 3345 647 3355C 679 3363 704 3404 696 3435C 691 3454 674 3468 633 3488C 561 3523 547 3544 578 3570C 597 3586 611 3588 647 3583C 684 3578 692 3580 688 3591C 685 3600 665 3606 628 3608C 578 3611 570 3608 551 3584z" stroke="none" fill="#000000" fill-rule="nonzero" />
	<g transform="matrix(0.13333333 0 -0 -0.13333334 0 560)">
	</g>
    <path transform="matrix(0.13333333 0 -0 -0.13333334 0 560)"  d="M793 3535C 742 3499 743 3398 795 3364C 824 3345 901 3349 908 3369C 912 3380 905 3381 875 3376C 829 3367 790 3389 790 3425C 790 3449 792 3450 860 3450C 899 3450 930 3454 930 3459C 930 3482 906 3532 890 3540C 863 3555 818 3552 793 3535zM871 3520C 881 3514 890 3500 890 3490C 890 3473 883 3470 840 3470C 786 3470 775 3484 806 3514C 824 3533 844 3534 871 3520z" stroke="none" fill="#000000" fill-rule="nonzero" />
	<g transform="matrix(0.13333333 0 -0 -0.13333334 0 560)">
	</g>
    <path transform="matrix(0.13333333 0 -0 -0.13333334 0 560)"  d="M1000 3450C 1000 3368 1003 3350 1015 3350C 1027 3350 1030 3364 1030 3414C 1030 3495 1050 3524 1103 3522C 1130 3521 1140 3525 1140 3535C 1140 3555 1081 3555 1052 3534C 1032 3520 1030 3520 1030 3534C 1030 3543 1023 3550 1015 3550C 1003 3550 1000 3532 1000 3450z" stroke="none" fill="#000000" fill-rule="nonzero" />
	<g transform="matrix(0.13333333 0 -0 -0.13333334 0 560)">
	</g>
    <path transform="matrix(0.13333333 0 -0 -0.13333334 0 560)"  d="M1200 3543C 1200 3538 1215 3493 1232 3443C 1260 3363 1268 3350 1288 3350C 1300 3350 1310 3351 1310 3353C 1310 3354 1326 3399 1345 3453C 1375 3536 1378 3551 1363 3548C 1352 3546 1338 3518 1321 3468C 1307 3426 1292 3388 1288 3385C 1285 3381 1269 3417 1254 3464C 1238 3513 1220 3550 1213 3550C 1206 3550 1200 3547 1200 3543z" stroke="none" fill="#000000" fill-rule="nonzero" />
	<g transform="matrix(0.13333333 0 -0 -0.13333334 0 560)">
	</g>
    <path transform="matrix(0.13333333 0 -0 -0.13333334 0 560)"  d="M1455 3525C 1435 3506 1430 3491 1430 3450C 1430 3384 1460 3350 1519 3350C 1564 3350 1590 3358 1590 3372C 1590 3377 1572 3379 1546 3375C 1509 3369 1499 3371 1480 3390C 1442 3428 1457 3445 1534 3448L1534 3448L1602 3451L1596 3483C 1583 3549 1503 3574 1455 3525zM1541 3520C 1551 3514 1560 3500 1560 3490C 1560 3473 1553 3470 1510 3470C 1456 3470 1448 3480 1477 3512C 1495 3532 1513 3535 1541 3520z" stroke="none" fill="#000000" fill-rule="nonzero" />
	<g transform="matrix(0.13333333 0 -0 -0.13333334 0 560)">
	</g>
    <path transform="matrix(0.13333333 0 -0 -0.13333334 0 560)"  d="M2320 3545C 2320 3542 2336 3500 2356 3452C 2375 3404 2392 3355 2392 3342C 2393 3314 2363 3280 2338 3280C 2328 3280 2320 3276 2320 3270C 2320 3253 2376 3259 2393 3278C 2405 3291 2500 3530 2500 3547C 2500 3549 2494 3550 2486 3550C 2478 3550 2461 3518 2444 3470C 2428 3426 2413 3394 2409 3398C 2406 3402 2390 3438 2375 3478C 2359 3518 2341 3550 2333 3550C 2326 3550 2320 3548 2320 3545z" stroke="none" fill="#000000" fill-rule="nonzero" />
	<g transform="matrix(0.13333333 0 -0 -0.13333334 0 560)">
	</g>
    <path transform="matrix(0.13333333 0 -0 -0.13333334 0 560)"  d="M730 2760C 730 2754 773 2750 840 2750C 907 2750 950 2754 950 2760C 950 2766 907 2770 840 2770C 773 2770 730 2766 730 2760z" stroke="none" fill="#000000" fill-rule="nonzero" />
	<g transform="matrix(0.13333333 0 -0 -0.13333334 0 560)">
	</g>
    <path transform="matrix(0.13333333 0 -0 -0.13333334 0 560)"  d="M2070 2760C 2070 2753 2265 2750 2636 2750C 3010 2750 3199 2753 3195 2760C 3191 2766 2992 2770 2629 2770C 2263 2770 2070 2767 2070 2760z" stroke="none" fill="#000000" fill-rule="nonzero" />
	<g transform="matrix(0.13333333 0 -0 -0.13333334 0 560)">
	</g>
    <path transform="matrix(0.13333333 0 -0 -0.13333334 0 560)"  d="M3420 2760C 3420 2754 3502 2750 3645 2750C 3788 2750 3870 2754 3870 2760C 3870 2766 3788 2770 3645 2770C 3502 2770 3420 2766 3420 2760z" stroke="none" fill="#000000" fill-rule="nonzero" />
	<g transform="matrix(0.13333333 0 -0 -0.13333334 0 560)">
	</g>
    <path transform="matrix(0.13333333 0 -0 -0.13333334 0 560)"  d="M4320 2760C 4320 2754 4402 2750 4546 2750C 4693 2750 4769 2753 4765 2760C 4761 2766 4675 2770 4539 2770C 4400 2770 4320 2766 4320 2760z" stroke="none" fill="#000000" fill-rule="nonzero" />
	<g transform="matrix(0.13333333 0 -0 -0.13333334 0 560)">
	</g>
    <path transform="matrix(0.13333333 0 -0 -0.13333334 0 560)"  d="M4990 2760C 4990 2753 5147 2750 5441 2750C 5738 2750 5889 2753 5885 2760C 5881 2766 5720 2770 5434 2770C 5145 2770 4990 2767 4990 2760z" stroke="none" fill="#000000" fill-rule="nonzero" />
	<g transform="matrix(0.13333333 0 -0 -0.13333334 0 560)">
	</g>
    <path transform="matrix(0.13333333 0 -0 -0.13333334 0 560)"  d="M600 2365C 600 2207 602 2180 615 2180C 628 2180 630 2207 630 2365C 630 2523 628 2550 615 2550C 602 2550 600 2523 600 2365z" stroke="none" fill="#000000" fill-rule="nonzero" />
	<g transform="matrix(0.13333333 0 -0 -0.13333334 0 560)">
	</g>
    <path transform="matrix(0.13333333 0 -0 -0.13333334 0 560)"  d="M1050 2365C 1050 2207 1052 2180 1065 2180C 1078 2180 1080 2207 1080 2365C 1080 2523 1078 2550 1065 2550C 1052 2550 1050 2523 1050 2365z" stroke="none" fill="#000000" fill-rule="nonzero" />
	<g transform="matrix(0.13333333 0 -0 -0.13333334 0 560)">
	</g>
    <path transform="matrix(0.13333333 0 -0 -0.13333334 0 560)"  d="M1950 2365C 1950 2248 1954 2180 1960 2180C 1966 2180 1970 2248 1970 2365C 1970 2482 1966 2550 1960 2550C 1954 2550 1950 2482 1950 2365z" stroke="none" fill="#000000" fill-rule="nonzero" />
	<g transform="matrix(0.13333333 0 -0 -0.13333334 0 560)">
	</g>
    <path transform="matrix(0.13333333 0 -0 -0.13333334 0 560)"  d="M3300 2365C 3300 2248 3304 2180 3310 2180C 3316 2180 3320 2248 3320 2365C 3320 2482 3316 2550 3310 2550C 3304 2550 3300 2482 3300 2365z" stroke="none" fill="#000000" fill-rule="nonzero" />
	<g transform="matrix(0.13333333 0 -0 -0.13333334 0 560)">
	</g>
    <path transform="matrix(0.13333333 0 -0 -0.13333334 0 560)"  d="M4870 2365C 4870 2248 4874 2180 4880 2180C 4886 2180 4890 2248 4890 2365C 4890 2482 4886 2550 4880 2550C 4874 2550 4870 2482 4870 2365z" stroke="none" fill="#000000" fill-rule="nonzero" />
	<g transform="matrix(0.13333333 0 -0 -0.13333334 0 560)">
	</g>
    <path transform="matrix(0.13333333 0 -0 -0.13333334 0 560)"  d="M3956 2423C 3981 2364 4006 2305 4011 2293C 4015 2280 4026 2270 4034 2270C 4046 2270 4042 2286 4018 2343C 4001 2382 3977 2440 3964 2470C 3952 2500 3935 2526 3926 2528C 3914 2531 3921 2506 3956 2423z" stroke="none" fill="#000000" fill-rule="nonzero" />
	<g transform="matrix(0.13333333 0 -0 -0.13333334 0 560)">
	</g>
    <path transform="matrix(0.13333333 0 -0 -0.13333334 0 560)"  d="M4198 2418C 4134 2264 4136 2270 4151 2270C 4162 2270 4218 2388 4266 2515C 4270 2524 4267 2530 4258 2530C 4250 2530 4225 2484 4198 2418z" stroke="none" fill="#000000" fill-rule="nonzero" />
	<g transform="matrix(0.13333333 0 -0 -0.13333334 0 560)">
	</g>
    <path transform="matrix(0.13333333 0 -0 -0.13333334 0 560)"  d="M5937 2513C 5978 2405 6042 2274 6054 2272C 6070 2269 6068 2273 5980 2478C 5968 2506 5951 2530 5944 2530C 5935 2530 5933 2524 5937 2513z" stroke="none" fill="#000000" fill-rule="nonzero" />
	<g transform="matrix(0.13333333 0 -0 -0.13333334 0 560)">
	</g>
    <path transform="matrix(0.13333333 0 -0 -0.13333334 0 560)"  d="M2300 2220C 2300 2213 2457 2210 2751 2210C 3048 2210 3199 2213 3195 2220C 3191 2226 3030 2230 2744 2230C 2455 2230 2300 2227 2300 2220z" stroke="none" fill="#000000" fill-rule="nonzero" />
	<g transform="matrix(0.13333333 0 -0 -0.13333334 0 560)">
	</g>
    <path transform="matrix(0.13333333 0 -0 -0.13333334 0 560)"  d="M5440 2220C 5440 2214 5485 2210 5556 2210C 5630 2210 5669 2214 5665 2220C 5661 2226 5612 2230 5549 2230C 5483 2230 5440 2226 5440 2220z" stroke="none" fill="#000000" fill-rule="nonzero" />
	<g transform="matrix(0.13333333 0 -0 -0.13333334 0 560)">
	</g>
    <path transform="matrix(0.13333333 0 -0 -0.13333334 0 560)"  d="M6340 2220C 6340 2214 6458 2210 6675 2210C 6892 2210 7010 2214 7010 2220C 7010 2226 6892 2230 6675 2230C 6458 2230 6340 2226 6340 2220z" stroke="none" fill="#000000" fill-rule="nonzero" />
	<g transform="matrix(0.13333333 0 -0 -0.13333334 0 560)">
	</g>
    <path transform="matrix(0.13333333 0 -0 -0.13333334 0 560)"  d="M7235 2220C 7231 2214 7270 2210 7344 2210C 7415 2210 7460 2214 7460 2220C 7460 2226 7417 2230 7351 2230C 7288 2230 7239 2226 7235 2220z" stroke="none" fill="#000000" fill-rule="nonzero" />
	<g transform="matrix(0.13333333 0 -0 -0.13333334 0 560)">
	</g>
    <path transform="matrix(0.13333333 0 -0 -0.13333334 0 560)"  d="M7685 2220C 7681 2213 7757 2210 7904 2210C 8048 2210 8130 2214 8130 2220C 8130 2226 8050 2230 7911 2230C 7775 2230 7689 2226 7685 2220z" stroke="none" fill="#000000" fill-rule="nonzero" />
	<g transform="matrix(0.13333333 0 -0 -0.13333334 0 560)">
	</g>
    <path transform="matrix(0.13333333 0 -0 -0.13333334 0 560)"  d="M600 1825C 600 1667 602 1640 615 1640C 628 1640 630 1667 630 1825C 630 1983 628 2010 615 2010C 602 2010 600 1983 600 1825z" stroke="none" fill="#000000" fill-rule="nonzero" />
	<g transform="matrix(0.13333333 0 -0 -0.13333334 0 560)">
	</g>
    <path transform="matrix(0.13333333 0 -0 -0.13333334 0 560)"  d="M1050 1825C 1050 1667 1052 1640 1065 1640C 1078 1640 1080 1667 1080 1825C 1080 1983 1078 2010 1065 2010C 1052 2010 1050 1983 1050 1825z" stroke="none" fill="#000000" fill-rule="nonzero" />
	<g transform="matrix(0.13333333 0 -0 -0.13333334 0 560)">
	</g>
    <path transform="matrix(0.13333333 0 -0 -0.13333334 0 560)"  d="M1950 1825C 1950 1708 1954 1640 1960 1640C 1966 1640 1970 1708 1970 1825C 1970 1942 1966 2010 1960 2010C 1954 2010 1950 1942 1950 1825z" stroke="none" fill="#000000" fill-rule="nonzero" />
	<g transform="matrix(0.13333333 0 -0 -0.13333334 0 560)">
	</g>
    <path transform="matrix(0.13333333 0 -0 -0.13333334 0 560)"  d="M2850 1825C 2850 1708 2854 1640 2860 1640C 2866 1640 2870 1708 2870 1825C 2870 1942 2866 2010 2860 2010C 2854 2010 2850 1942 2850 1825z" stroke="none" fill="#000000" fill-rule="nonzero" />
	<g transform="matrix(0.13333333 0 -0 -0.13333334 0 560)">
	</g>
    <path transform="matrix(0.13333333 0 -0 -0.13333334 0 560)"  d="M3300 1825C 3300 1708 3304 1640 3310 1640C 3316 1640 3320 1708 3320 1825C 3320 1942 3316 2010 3310 2010C 3304 2010 3300 1942 3300 1825z" stroke="none" fill="#000000" fill-rule="nonzero" />
	<g transform="matrix(0.13333333 0 -0 -0.13333334 0 560)">
	</g>
    <path transform="matrix(0.13333333 0 -0 -0.13333334 0 560)"  d="M3750 1825C 3750 1708 3754 1640 3760 1640C 3766 1640 3770 1708 3770 1825C 3770 1942 3766 2010 3760 2010C 3754 2010 3750 1942 3750 1825z" stroke="none" fill="#000000" fill-rule="nonzero" />
	<g transform="matrix(0.13333333 0 -0 -0.13333334 0 560)">
	</g>
    <path transform="matrix(0.13333333 0 -0 -0.13333334 0 560)"  d="M4420 1825C 4420 1708 4424 1640 4430 1640C 4436 1640 4440 1708 4440 1825C 4440 1942 4436 2010 4430 2010C 4424 2010 4420 1942 4420 1825z" stroke="none" fill="#000000" fill-rule="nonzero" />
	<g transform="matrix(0.13333333 0 -0 -0.13333334 0 560)">
	</g>
    <path transform="matrix(0.13333333 0 -0 -0.13333334 0 560)"  d="M4870 1825C 4870 1708 4874 1640 4880 1640C 4886 1640 4890 1708 4890 1825C 4890 1942 4886 2010 4880 2010C 4874 2010 4870 1942 4870 1825z" stroke="none" fill="#000000" fill-rule="nonzero" />
	<g transform="matrix(0.13333333 0 -0 -0.13333334 0 560)">
	</g>
    <path transform="matrix(0.13333333 0 -0 -0.13333334 0 560)"  d="M5320 1825C 5320 1708 5324 1640 5330 1640C 5336 1640 5340 1708 5340 1825C 5340 1942 5336 2010 5330 2010C 5324 2010 5320 1942 5320 1825z" stroke="none" fill="#000000" fill-rule="nonzero" />
	<g transform="matrix(0.13333333 0 -0 -0.13333334 0 560)">
	</g>
    <path transform="matrix(0.13333333 0 -0 -0.13333334 0 560)"  d="M8230 1825C 8230 1667 8232 1640 8245 1640C 8258 1640 8260 1667 8260 1825C 8260 1983 8258 2010 8245 2010C 8232 2010 8230 1983 8230 1825z" stroke="none" fill="#000000" fill-rule="nonzero" />
	<g transform="matrix(0.13333333 0 -0 -0.13333334 0 560)">
	</g>
    <path transform="matrix(0.13333333 0 -0 -0.13333334 0 560)"  d="M3919 1968C 3978 1824 4021 1734 4034 1732C 4046 1729 4043 1744 4018 1802C 4001 1842 3977 1900 3964 1930C 3952 1960 3935 1986 3926 1988C 3913 1991 3912 1987 3919 1968z" stroke="none" fill="#000000" fill-rule="nonzero" />
	<g transform="matrix(0.13333333 0 -0 -0.13333334 0 560)">
	</g>
    <path transform="matrix(0.13333333 0 -0 -0.13333334 0 560)"  d="M4198 1878C 4134 1724 4136 1730 4151 1730C 4162 1730 4218 1848 4266 1975C 4270 1984 4267 1990 4258 1990C 4250 1990 4225 1944 4198 1878z" stroke="none" fill="#000000" fill-rule="nonzero" />
	<g transform="matrix(0.13333333 0 -0 -0.13333334 0 560)">
	</g>
    <path transform="matrix(0.13333333 0 -0 -0.13333334 0 560)"  d="M5759 1949C 5812 1877 5812 1786 5760 1709C 5728 1661 5728 1653 5758 1669C 5788 1685 5830 1777 5830 1827C 5830 1877 5809 1935 5778 1967C 5741 2007 5727 1994 5759 1949z" stroke="none" fill="#000000" fill-rule="nonzero" />
	<g transform="matrix(0.13333333 0 -0 -0.13333334 0 560)">
	</g>
    <path transform="matrix(0.13333333 0 -0 -0.13333334 0 560)"  d="M6218 1878C 6154 1724 6156 1730 6171 1730C 6182 1730 6238 1848 6286 1975C 6290 1984 6287 1990 6278 1990C 6270 1990 6245 1944 6218 1878z" stroke="none" fill="#000000" fill-rule="nonzero" />
	<g transform="matrix(0.13333333 0 -0 -0.13333334 0 560)">
	</g>
    <path transform="matrix(0.13333333 0 -0 -0.13333334 0 560)"  d="M7107 1861C 7139 1788 7169 1730 7177 1730C 7187 1730 7185 1741 7171 1778C 7115 1917 7082 1985 7067 1988C 7055 1990 7066 1958 7107 1861z" stroke="none" fill="#000000" fill-rule="nonzero" />
	<g transform="matrix(0.13333333 0 -0 -0.13333334 0 560)">
	</g>
    <path transform="matrix(0.13333333 0 -0 -0.13333334 0 560)"  d="M7553 1949C 7562 1882 7575 1881 7586 1948C 7592 1987 7591 1990 7570 1990C 7549 1990 7548 1987 7553 1949z" stroke="none" fill="#000000" fill-rule="nonzero" />
	<g transform="matrix(0.13333333 0 -0 -0.13333334 0 560)">
	</g>
    <path transform="matrix(0.13333333 0 -0 -0.13333334 0 560)"  d="M2520 1680C 2520 1674 2565 1670 2636 1670C 2710 1670 2749 1674 2745 1680C 2741 1686 2692 1690 2629 1690C 2563 1690 2520 1686 2520 1680z" stroke="none" fill="#000000" fill-rule="nonzero" />
	<g transform="matrix(0.13333333 0 -0 -0.13333334 0 560)">
	</g>
    <path transform="matrix(0.13333333 0 -0 -0.13333334 0 560)"  d="M5440 1680C 5440 1674 5483 1670 5550 1670C 5617 1670 5660 1674 5660 1680C 5660 1686 5617 1690 5550 1690C 5483 1690 5440 1686 5440 1680z" stroke="none" fill="#000000" fill-rule="nonzero" />
	<g transform="matrix(0.13333333 0 -0 -0.13333334 0 560)">
	</g>
    <path transform="matrix(0.13333333 0 -0 -0.13333334 0 560)"  d="M6560 1680C 6560 1674 6603 1670 6670 1670C 6737 1670 6780 1674 6780 1680C 6780 1686 6737 1690 6670 1690C 6603 1690 6560 1686 6560 1680z" stroke="none" fill="#000000" fill-rule="nonzero" />
	<g transform="matrix(0.13333333 0 -0 -0.13333334 0 560)">
	</g>
    <path transform="matrix(0.13333333 0 -0 -0.13333334 0 560)"  d="M7685 1680C 7681 1673 7757 1670 7904 1670C 8048 1670 8130 1674 8130 1680C 8130 1686 8050 1690 7911 1690C 7775 1690 7689 1686 7685 1680z" stroke="none" fill="#000000" fill-rule="nonzero" />
	<g transform="matrix(0.13333333 0 -0 -0.13333334 0 560)">
	</g>
    <path transform="matrix(0.13333333 0 -0 -0.13333334 0 560)"  d="M600 1285C 600 1127 602 1100 615 1100C 628 1100 630 1127 630 1285C 630 1443 628 1470 615 1470C 602 1470 600 1443 600 1285z" stroke="none" fill="#000000" fill-rule="nonzero" />
	<g transform="matrix(0.13333333 0 -0 -0.13333334 0 560)">
	</g>
    <path transform="matrix(0.13333333 0 -0 -0.13333334 0 560)"  d="M1050 1285C 1050 1127 1052 1100 1065 1100C 1078 1100 1080 1127 1080 1285C 1080 1443 1078 1470 1065 1470C 1052 1470 1050 1443 1050 1285z" stroke="none" fill="#000000" fill-rule="nonzero" />
	<g transform="matrix(0.13333333 0 -0 -0.13333334 0 560)">
	</g>
    <path transform="matrix(0.13333333 0 -0 -0.13333334 0 560)"  d="M1950 1285C 1950 1168 1954 1100 1960 1100C 1966 1100 1970 1168 1970 1285C 1970 1402 1966 1470 1960 1470C 1954 1470 1950 1402 1950 1285z" stroke="none" fill="#000000" fill-rule="nonzero" />
	<g transform="matrix(0.13333333 0 -0 -0.13333334 0 560)">
	</g>
    <path transform="matrix(0.13333333 0 -0 -0.13333334 0 560)"  d="M2400 1285C 2400 1168 2404 1100 2410 1100C 2416 1100 2420 1168 2420 1285C 2420 1402 2416 1470 2410 1470C 2404 1470 2400 1402 2400 1285z" stroke="none" fill="#000000" fill-rule="nonzero" />
	<g transform="matrix(0.13333333 0 -0 -0.13333334 0 560)">
	</g>
    <path transform="matrix(0.13333333 0 -0 -0.13333334 0 560)"  d="M3300 1285C 3300 1168 3304 1100 3310 1100C 3316 1100 3320 1168 3320 1285C 3320 1402 3316 1470 3310 1470C 3304 1470 3300 1402 3300 1285z" stroke="none" fill="#000000" fill-rule="nonzero" />
	<g transform="matrix(0.13333333 0 -0 -0.13333334 0 560)">
	</g>
    <path transform="matrix(0.13333333 0 -0 -0.13333334 0 560)"  d="M3750 1285C 3750 1168 3754 1100 3760 1100C 3766 1100 3770 1168 3770 1285C 3770 1402 3766 1470 3760 1470C 3754 1470 3750 1402 3750 1285z" stroke="none" fill="#000000" fill-rule="nonzero" />
	<g transform="matrix(0.13333333 0 -0 -0.13333334 0 560)">
	</g>
    <path transform="matrix(0.13333333 0 -0 -0.13333334 0 560)"  d="M4420 1285C 4420 1168 4424 1100 4430 1100C 4436 1100 4440 1168 4440 1285C 4440 1402 4436 1470 4430 1470C 4424 1470 4420 1402 4420 1285z" stroke="none" fill="#000000" fill-rule="nonzero" />
	<g transform="matrix(0.13333333 0 -0 -0.13333334 0 560)">
	</g>
    <path transform="matrix(0.13333333 0 -0 -0.13333334 0 560)"  d="M4870 1285C 4870 1168 4874 1100 4880 1100C 4886 1100 4890 1168 4890 1285C 4890 1402 4886 1470 4880 1470C 4874 1470 4870 1402 4870 1285z" stroke="none" fill="#000000" fill-rule="nonzero" />
	<g transform="matrix(0.13333333 0 -0 -0.13333334 0 560)">
	</g>
    <path transform="matrix(0.13333333 0 -0 -0.13333334 0 560)"  d="M7560 1285C 7560 1168 7564 1100 7570 1100C 7576 1100 7580 1168 7580 1285C 7580 1402 7576 1470 7570 1470C 7564 1470 7560 1402 7560 1285z" stroke="none" fill="#000000" fill-rule="nonzero" />
	<g transform="matrix(0.13333333 0 -0 -0.13333334 0 560)">
	</g>
    <path transform="matrix(0.13333333 0 -0 -0.13333334 0 560)"  d="M6031 1428C 6026 1415 6005 1367 5985 1320C 5927 1187 5928 1188 5946 1192C 5955 1194 5972 1220 5984 1250C 5997 1280 6021 1338 6038 1378C 6062 1434 6066 1450 6054 1450C 6046 1450 6036 1440 6031 1428z" stroke="none" fill="#000000" fill-rule="nonzero" />
	<g transform="matrix(0.13333333 0 -0 -0.13333334 0 560)">
	</g>
    <path transform="matrix(0.13333333 0 -0 -0.13333334 0 560)"  d="M7107 1319C 7066 1223 7055 1190 7067 1192C 7076 1194 7104 1245 7136 1319C 7166 1388 7190 1445 7190 1447C 7190 1449 7184 1450 7177 1450C 7169 1450 7139 1393 7107 1319z" stroke="none" fill="#000000" fill-rule="nonzero" />
	<g transform="matrix(0.13333333 0 -0 -0.13333334 0 560)">
	</g>
    <path transform="matrix(0.13333333 0 -0 -0.13333334 0 560)"  d="M1175 1140C 1171 1133 1285 1130 1509 1130C 1730 1130 1850 1134 1850 1140C 1850 1154 1183 1154 1175 1140z" stroke="none" fill="#000000" fill-rule="nonzero" />
	<g transform="matrix(0.13333333 0 -0 -0.13333334 0 560)">
	</g>
    <path transform="matrix(0.13333333 0 -0 -0.13333334 0 560)"  d="M2520 1140C 2520 1134 2638 1130 2855 1130C 3072 1130 3190 1134 3190 1140C 3190 1146 3072 1150 2855 1150C 2638 1150 2520 1146 2520 1140z" stroke="none" fill="#000000" fill-rule="nonzero" />
	<g transform="matrix(0.13333333 0 -0 -0.13333334 0 560)">
	</g>
    <path transform="matrix(0.13333333 0 -0 -0.13333334 0 560)"  d="M5440 1140C 5440 1134 5522 1130 5666 1130C 5813 1130 5889 1133 5885 1140C 5881 1146 5795 1150 5659 1150C 5520 1150 5440 1146 5440 1140z" stroke="none" fill="#000000" fill-rule="nonzero" />
	<g transform="matrix(0.13333333 0 -0 -0.13333334 0 560)">
	</g>
    <path transform="matrix(0.13333333 0 -0 -0.13333334 0 560)"  d="M6560 1140C 6560 1134 6642 1130 6785 1130C 6928 1130 7010 1134 7010 1140C 7010 1146 6928 1150 6785 1150C 6642 1150 6560 1146 6560 1140z" stroke="none" fill="#000000" fill-rule="nonzero" />
	<g transform="matrix(0.13333333 0 -0 -0.13333334 0 560)">
	</g>
    <path transform="matrix(0.13333333 0 -0 -0.13333334 0 560)"  d="M600 745C 600 587 602 560 615 560C 628 560 630 587 630 745C 630 903 628 930 615 930C 602 930 600 903 600 745z" stroke="none" fill="#000000" fill-rule="nonzero" />
	<g transform="matrix(0.13333333 0 -0 -0.13333334 0 560)">
	</g>
    <path transform="matrix(0.13333333 0 -0 -0.13333334 0 560)"  d="M1950 745C 1950 628 1954 560 1960 560C 1966 560 1970 628 1970 745C 1970 862 1966 930 1960 930C 1954 930 1950 862 1950 745z" stroke="none" fill="#000000" fill-rule="nonzero" />
	<g transform="matrix(0.13333333 0 -0 -0.13333334 0 560)">
	</g>
    <path transform="matrix(0.13333333 0 -0 -0.13333334 0 560)"  d="M3300 745C 3300 628 3304 560 3310 560C 3316 560 3320 628 3320 745C 3320 862 3316 930 3310 930C 3304 930 3300 862 3300 745z" stroke="none" fill="#000000" fill-rule="nonzero" />
	<g transform="matrix(0.13333333 0 -0 -0.13333334 0 560)">
	</g>
    <path transform="matrix(0.13333333 0 -0 -0.13333334 0 560)"  d="M3750 745C 3750 628 3754 560 3760 560C 3766 560 3770 628 3770 745C 3770 862 3766 930 3760 930C 3754 930 3750 862 3750 745z" stroke="none" fill="#000000" fill-rule="nonzero" />
	<g transform="matrix(0.13333333 0 -0 -0.13333334 0 560)">
	</g>
    <path transform="matrix(0.13333333 0 -0 -0.13333334 0 560)"  d="M4420 745C 4420 628 4424 560 4430 560C 4436 560 4440 628 4440 745C 4440 862 4436 930 4430 930C 4424 930 4420 862 4420 745z" stroke="none" fill="#000000" fill-rule="nonzero" />
	<g transform="matrix(0.13333333 0 -0 -0.13333334 0 560)">
	</g>
    <path transform="matrix(0.13333333 0 -0 -0.13333334 0 560)"  d="M4870 745C 4870 628 4874 560 4880 560C 4886 560 4890 628 4890 745C 4890 862 4886 930 4880 930C 4874 930 4870 862 4870 745z" stroke="none" fill="#000000" fill-rule="nonzero" />
	<g transform="matrix(0.13333333 0 -0 -0.13333334 0 560)">
	</g>
    <path transform="matrix(0.13333333 0 -0 -0.13333334 0 560)"  d="M5320 745C 5320 628 5324 560 5330 560C 5336 560 5340 628 5340 745C 5340 862 5336 930 5330 930C 5324 930 5320 862 5320 745z" stroke="none" fill="#000000" fill-rule="nonzero" />
	<g transform="matrix(0.13333333 0 -0 -0.13333334 0 560)">
	</g>
    <path transform="matrix(0.13333333 0 -0 -0.13333334 0 560)"  d="M7110 745C 7110 628 7114 560 7120 560C 7126 560 7130 628 7130 745C 7130 862 7126 930 7120 930C 7114 930 7110 862 7110 745z" stroke="none" fill="#000000" fill-rule="nonzero" />
	<g transform="matrix(0.13333333 0 -0 -0.13333334 0 560)">
	</g>
    <path transform="matrix(0.13333333 0 -0 -0.13333334 0 560)"  d="M7560 745C 7560 628 7564 560 7570 560C 7576 560 7580 628 7580 745C 7580 862 7576 930 7570 930C 7564 930 7560 862 7560 745z" stroke="none" fill="#000000" fill-rule="nonzero" />
	<g transform="matrix(0.13333333 0 -0 -0.13333334 0 560)">
	</g>
    <path transform="matrix(0.13333333 0 -0 -0.13333334 0 560)"  d="M6164 893C 6207 778 6267 650 6278 650C 6287 650 6290 656 6286 665C 6238 792 6182 910 6171 910C 6163 910 6160 904 6164 893z" stroke="none" fill="#000000" fill-rule="nonzero" />
	<g transform="matrix(0.13333333 0 -0 -0.13333334 0 560)">
	</g>
    <path transform="matrix(0.13333333 0 -0 -0.13333334 0 560)"  d="M730 600C 730 593 923 590 1290 590C 1657 590 1850 593 1850 600C 1850 607 1657 610 1290 610C 923 610 730 607 730 600z" stroke="none" fill="#000000" fill-rule="nonzero" />
	<g transform="matrix(0.13333333 0 -0 -0.13333334 0 560)">
	</g>
    <path transform="matrix(0.13333333 0 -0 -0.13333334 0 560)"  d="M2070 600C 2070 593 2265 590 2636 590C 3010 590 3199 593 3195 600C 3186 614 2070 614 2070 600z" stroke="none" fill="#000000" fill-rule="nonzero" />
	<g transform="matrix(0.13333333 0 -0 -0.13333334 0 560)">
	</g>
    <path transform="matrix(0.13333333 0 -0 -0.13333334 0 560)"  d="M3420 600C 3420 594 3465 590 3536 590C 3610 590 3649 594 3645 600C 3641 606 3592 610 3529 610C 3463 610 3420 606 3420 600z" stroke="none" fill="#000000" fill-rule="nonzero" />
	<g transform="matrix(0.13333333 0 -0 -0.13333334 0 560)">
	</g>
    <path transform="matrix(0.13333333 0 -0 -0.13333334 0 560)"  d="M4540 600C 4540 594 4585 590 4656 590C 4730 590 4769 594 4765 600C 4761 606 4712 610 4649 610C 4583 610 4540 606 4540 600z" stroke="none" fill="#000000" fill-rule="nonzero" />
	<g transform="matrix(0.13333333 0 -0 -0.13333334 0 560)">
	</g>
    <path transform="matrix(0.13333333 0 -0 -0.13333334 0 560)"  d="M4990 600C 4990 594 5035 590 5106 590C 5180 590 5219 594 5215 600C 5211 606 5162 610 5099 610C 5033 610 4990 606 4990 600z" stroke="none" fill="#000000" fill-rule="nonzero" />
	<g transform="matrix(0.13333333 0 -0 -0.13333334 0 560)">
	</g>
    <path transform="matrix(0.13333333 0 -0 -0.13333334 0 560)"  d="M6340 600C 6340 594 6458 590 6675 590C 6892 590 7010 594 7010 600C 7010 606 6892 610 6675 610C 6458 610 6340 606 6340 600z" stroke="none" fill="#000000" fill-rule="nonzero" />
	<g transform="matrix(0.13333333 0 -0 -0.13333334 0 560)">
	</g>
    <path transform="matrix(0.13333333 0 -0 -0.13333334 0 560)"  d="M7235 600C 7231 594 7270 590 7344 590C 7415 590 7460 594 7460 600C 7460 606 7417 610 7351 610C 7288 610 7239 606 7235 600z" stroke="none" fill="#000000" fill-rule="nonzero" />
</g>
</svg>