<?xml version="1.0" standalone="no"?>
<!DOCTYPE svg PUBLIC "-//W3C//DTD SVG 20010904//EN"
 "http://www.w3.org/TR/2001/REC-SVG-20010904/DTD/svg10.dtd">
<svg version="1.0" xmlns="http://www.w3.org/2000/svg"
 width="900.000000pt" height="420.000000pt" viewBox="0 0 900.000000 420.000000"
 preserveAspectRatio="xMidYMid meet">

<g transform="translate(0.000000,420.000000) scale(0.100000,-0.100000)"
fill="#000000" stroke="none">
<path d="M1790 3581 l0 -49 -30 11 c-47 18 -82 0 -100 -51 -13 -37 -13 -47 0
-84 18 -51 53 -69 100 -51 17 6 30 7 30 2 0 -5 7 -9 15 -9 13 0 15 22 15 140
0 118 -2 140 -15 140 -11 0 -15 -12 -15 -49z m-20 -71 c26 -26 27 -89 2 -120
-15 -18 -25 -22 -46 -16 -65 16 -55 156 11 156 7 0 22 -9 33 -20z"/>
<path d="M2100 3490 c0 -118 2 -140 15 -140 8 0 15 5 15 10 0 7 6 7 19 0 32
-17 76 -12 97 11 27 30 27 128 0 158 -20 22 -80 29 -91 11 -14 -23 -25 -7 -25
40 0 38 -4 50 -15 50 -13 0 -15 -22 -15 -140z m124 18 c23 -32 20 -94 -4 -118
-24 -24 -39 -25 -66 -6 -27 20 -27 112 0 132 28 20 53 17 70 -8z"/>
<path d="M551 3584 c-12 -15 -21 -32 -21 -38 0 -25 33 -56 86 -80 46 -21 55
-29 52 -48 -4 -32 -44 -49 -97 -42 -34 5 -43 4 -39 -7 5 -15 76 -24 115 -14
32 8 57 49 49 80 -5 19 -22 33 -63 53 -72 35 -86 56 -55 82 19 16 33 18 69 13
37 -5 45 -3 41 8 -3 9 -23 15 -60 17 -50 3 -58 0 -77 -24z"/>
<path d="M793 3535 c-51 -36 -50 -137 2 -171 29 -19 106 -15 113 5 4 11 -3 12
-33 7 -46 -9 -85 13 -85 49 0 24 2 25 70 25 39 0 70 4 70 9 0 23 -24 73 -40
81 -27 15 -72 12 -97 -5z m78 -15 c10 -6 19 -20 19 -30 0 -17 -7 -20 -50 -20
-54 0 -65 14 -34 44 18 19 38 20 65 6z"/>
<path d="M1000 3450 c0 -82 3 -100 15 -100 12 0 15 14 15 64 0 81 20 110 73
108 27 -1 37 3 37 13 0 20 -59 20 -88 -1 -20 -14 -22 -14 -22 0 0 9 -7 16 -15
16 -12 0 -15 -18 -15 -100z"/>
<path d="M1200 3543 c0 -5 15 -50 32 -100 28 -80 36 -93 56 -93 12 0 22 1 22
3 0 1 16 46 35 100 30 83 33 98 18 95 -11 -2 -25 -30 -42 -80 -14 -42 -29 -80
-33 -83 -3 -4 -19 32 -34 79 -16 49 -34 86 -41 86 -7 0 -13 -3 -13 -7z"/>
<path d="M1455 3525 c-20 -19 -25 -34 -25 -75 0 -66 30 -100 89 -100 45 0 71
8 71 22 0 5 -18 7 -44 3 -37 -6 -47 -4 -66 15 -38 38 -23 55 54 58 l68 3 -6
32 c-13 66 -93 91 -141 42z m86 -5 c10 -6 19 -20 19 -30 0 -17 -7 -20 -50 -20
-54 0 -62 10 -33 42 18 20 36 23 64 8z"/>
<path d="M2320 3545 c0 -3 16 -45 36 -93 19 -48 36 -97 36 -110 1 -28 -29 -62
-54 -62 -10 0 -18 -4 -18 -10 0 -17 56 -11 73 8 12 13 107 252 107 269 0 2 -6
3 -14 3 -8 0 -25 -32 -42 -80 -16 -44 -31 -76 -35 -72 -3 4 -19 40 -34 80 -16
40 -34 72 -42 72 -7 0 -13 -2 -13 -5z"/>
<path d="M730 2760 c0 -6 43 -10 110 -10 67 0 110 4 110 10 0 6 -43 10 -110
10 -67 0 -110 -4 -110 -10z"/>
<path d="M2070 2760 c0 -7 195 -10 566 -10 374 0 563 3 559 10 -4 6 -203 10
-566 10 -366 0 -559 -3 -559 -10z"/>
<path d="M3420 2760 c0 -6 82 -10 225 -10 143 0 225 4 225 10 0 6 -82 10 -225
10 -143 0 -225 -4 -225 -10z"/>
<path d="M4320 2760 c0 -6 82 -10 226 -10 147 0 223 3 219 10 -4 6 -90 10
-226 10 -139 0 -219 -4 -219 -10z"/>
<path d="M4990 2760 c0 -7 157 -10 451 -10 297 0 448 3 444 10 -4 6 -165 10
-451 10 -289 0 -444 -3 -444 -10z"/>
<path d="M600 2365 c0 -158 2 -185 15 -185 13 0 15 27 15 185 0 158 -2 185
-15 185 -13 0 -15 -27 -15 -185z"/>
<path d="M1050 2365 c0 -158 2 -185 15 -185 13 0 15 27 15 185 0 158 -2 185
-15 185 -13 0 -15 -27 -15 -185z"/>
<path d="M1950 2365 c0 -117 4 -185 10 -185 6 0 10 68 10 185 0 117 -4 185
-10 185 -6 0 -10 -68 -10 -185z"/>
<path d="M3300 2365 c0 -117 4 -185 10 -185 6 0 10 68 10 185 0 117 -4 185
-10 185 -6 0 -10 -68 -10 -185z"/>
<path d="M4870 2365 c0 -117 4 -185 10 -185 6 0 10 68 10 185 0 117 -4 185
-10 185 -6 0 -10 -68 -10 -185z"/>
<path d="M3956 2423 c25 -59 50 -118 55 -130 4 -13 15 -23 23 -23 12 0 8 16
-16 73 -17 39 -41 97 -54 127 -12 30 -29 56 -38 58 -12 3 -5 -22 30 -105z"/>
<path d="M4198 2418 c-64 -154 -62 -148 -47 -148 11 0 67 118 115 245 4 9 1
15 -8 15 -8 0 -33 -46 -60 -112z"/>
<path d="M5937 2513 c41 -108 105 -239 117 -241 16 -3 14 1 -74 206 -12 28
-29 52 -36 52 -9 0 -11 -6 -7 -17z"/>
<path d="M2300 2220 c0 -7 157 -10 451 -10 297 0 448 3 444 10 -4 6 -165 10
-451 10 -289 0 -444 -3 -444 -10z"/>
<path d="M5440 2220 c0 -6 45 -10 116 -10 74 0 113 4 109 10 -4 6 -53 10 -116
10 -66 0 -109 -4 -109 -10z"/>
<path d="M6340 2220 c0 -6 118 -10 335 -10 217 0 335 4 335 10 0 6 -118 10
-335 10 -217 0 -335 -4 -335 -10z"/>
<path d="M7235 2220 c-4 -6 35 -10 109 -10 71 0 116 4 116 10 0 6 -43 10 -109
10 -63 0 -112 -4 -116 -10z"/>
<path d="M7685 2220 c-4 -7 72 -10 219 -10 144 0 226 4 226 10 0 6 -80 10
-219 10 -136 0 -222 -4 -226 -10z"/>
<path d="M600 1825 c0 -158 2 -185 15 -185 13 0 15 27 15 185 0 158 -2 185
-15 185 -13 0 -15 -27 -15 -185z"/>
<path d="M1050 1825 c0 -158 2 -185 15 -185 13 0 15 27 15 185 0 158 -2 185
-15 185 -13 0 -15 -27 -15 -185z"/>
<path d="M1950 1825 c0 -117 4 -185 10 -185 6 0 10 68 10 185 0 117 -4 185
-10 185 -6 0 -10 -68 -10 -185z"/>
<path d="M2850 1825 c0 -117 4 -185 10 -185 6 0 10 68 10 185 0 117 -4 185
-10 185 -6 0 -10 -68 -10 -185z"/>
<path d="M3300 1825 c0 -117 4 -185 10 -185 6 0 10 68 10 185 0 117 -4 185
-10 185 -6 0 -10 -68 -10 -185z"/>
<path d="M3750 1825 c0 -117 4 -185 10 -185 6 0 10 68 10 185 0 117 -4 185
-10 185 -6 0 -10 -68 -10 -185z"/>
<path d="M4420 1825 c0 -117 4 -185 10 -185 6 0 10 68 10 185 0 117 -4 185
-10 185 -6 0 -10 -68 -10 -185z"/>
<path d="M4870 1825 c0 -117 4 -185 10 -185 6 0 10 68 10 185 0 117 -4 185
-10 185 -6 0 -10 -68 -10 -185z"/>
<path d="M5320 1825 c0 -117 4 -185 10 -185 6 0 10 68 10 185 0 117 -4 185
-10 185 -6 0 -10 -68 -10 -185z"/>
<path d="M8230 1825 c0 -158 2 -185 15 -185 13 0 15 27 15 185 0 158 -2 185
-15 185 -13 0 -15 -27 -15 -185z"/>
<path d="M3919 1968 c59 -144 102 -234 115 -236 12 -3 9 12 -16 70 -17 40 -41
98 -54 128 -12 30 -29 56 -38 58 -13 3 -14 -1 -7 -20z"/>
<path d="M4198 1878 c-64 -154 -62 -148 -47 -148 11 0 67 118 115 245 4 9 1
15 -8 15 -8 0 -33 -46 -60 -112z"/>
<path d="M5759 1949 c53 -72 53 -163 1 -240 -32 -48 -32 -56 -2 -40 30 16 72
108 72 158 0 50 -21 108 -52 140 -37 40 -51 27 -19 -18z"/>
<path d="M6218 1878 c-64 -154 -62 -148 -47 -148 11 0 67 118 115 245 4 9 1
15 -8 15 -8 0 -33 -46 -60 -112z"/>
<path d="M7107 1861 c32 -73 62 -131 70 -131 10 0 8 11 -6 48 -56 139 -89 207
-104 210 -12 2 -1 -30 40 -127z"/>
<path d="M7553 1949 c9 -67 22 -68 33 -1 6 39 5 42 -16 42 -21 0 -22 -3 -17
-41z"/>
<path d="M2520 1680 c0 -6 45 -10 116 -10 74 0 113 4 109 10 -4 6 -53 10 -116
10 -66 0 -109 -4 -109 -10z"/>
<path d="M5440 1680 c0 -6 43 -10 110 -10 67 0 110 4 110 10 0 6 -43 10 -110
10 -67 0 -110 -4 -110 -10z"/>
<path d="M6560 1680 c0 -6 43 -10 110 -10 67 0 110 4 110 10 0 6 -43 10 -110
10 -67 0 -110 -4 -110 -10z"/>
<path d="M7685 1680 c-4 -7 72 -10 219 -10 144 0 226 4 226 10 0 6 -80 10
-219 10 -136 0 -222 -4 -226 -10z"/>
<path d="M600 1285 c0 -158 2 -185 15 -185 13 0 15 27 15 185 0 158 -2 185
-15 185 -13 0 -15 -27 -15 -185z"/>
<path d="M1050 1285 c0 -158 2 -185 15 -185 13 0 15 27 15 185 0 158 -2 185
-15 185 -13 0 -15 -27 -15 -185z"/>
<path d="M1950 1285 c0 -117 4 -185 10 -185 6 0 10 68 10 185 0 117 -4 185
-10 185 -6 0 -10 -68 -10 -185z"/>
<path d="M2400 1285 c0 -117 4 -185 10 -185 6 0 10 68 10 185 0 117 -4 185
-10 185 -6 0 -10 -68 -10 -185z"/>
<path d="M3300 1285 c0 -117 4 -185 10 -185 6 0 10 68 10 185 0 117 -4 185
-10 185 -6 0 -10 -68 -10 -185z"/>
<path d="M3750 1285 c0 -117 4 -185 10 -185 6 0 10 68 10 185 0 117 -4 185
-10 185 -6 0 -10 -68 -10 -185z"/>
<path d="M4420 1285 c0 -117 4 -185 10 -185 6 0 10 68 10 185 0 117 -4 185
-10 185 -6 0 -10 -68 -10 -185z"/>
<path d="M4870 1285 c0 -117 4 -185 10 -185 6 0 10 68 10 185 0 117 -4 185
-10 185 -6 0 -10 -68 -10 -185z"/>
<path d="M7560 1285 c0 -117 4 -185 10 -185 6 0 10 68 10 185 0 117 -4 185
-10 185 -6 0 -10 -68 -10 -185z"/>
<path d="M6031 1428 c-5 -13 -26 -61 -46 -108 -58 -133 -57 -132 -39 -128 9 2
26 28 38 58 13 30 37 88 54 128 24 56 28 72 16 72 -8 0 -18 -10 -23 -22z"/>
<path d="M7107 1319 c-41 -96 -52 -129 -40 -127 9 2 37 53 69 127 30 69 54
126 54 128 0 2 -6 3 -13 3 -8 0 -38 -57 -70 -131z"/>
<path d="M1175 1140 c-4 -7 110 -10 334 -10 221 0 341 4 341 10 0 14 -667 14
-675 0z"/>
<path d="M2520 1140 c0 -6 118 -10 335 -10 217 0 335 4 335 10 0 6 -118 10
-335 10 -217 0 -335 -4 -335 -10z"/>
<path d="M5440 1140 c0 -6 82 -10 226 -10 147 0 223 3 219 10 -4 6 -90 10
-226 10 -139 0 -219 -4 -219 -10z"/>
<path d="M6560 1140 c0 -6 82 -10 225 -10 143 0 225 4 225 10 0 6 -82 10 -225
10 -143 0 -225 -4 -225 -10z"/>
<path d="M600 745 c0 -158 2 -185 15 -185 13 0 15 27 15 185 0 158 -2 185 -15
185 -13 0 -15 -27 -15 -185z"/>
<path d="M1950 745 c0 -117 4 -185 10 -185 6 0 10 68 10 185 0 117 -4 185 -10
185 -6 0 -10 -68 -10 -185z"/>
<path d="M3300 745 c0 -117 4 -185 10 -185 6 0 10 68 10 185 0 117 -4 185 -10
185 -6 0 -10 -68 -10 -185z"/>
<path d="M3750 745 c0 -117 4 -185 10 -185 6 0 10 68 10 185 0 117 -4 185 -10
185 -6 0 -10 -68 -10 -185z"/>
<path d="M4420 745 c0 -117 4 -185 10 -185 6 0 10 68 10 185 0 117 -4 185 -10
185 -6 0 -10 -68 -10 -185z"/>
<path d="M4870 745 c0 -117 4 -185 10 -185 6 0 10 68 10 185 0 117 -4 185 -10
185 -6 0 -10 -68 -10 -185z"/>
<path d="M5320 745 c0 -117 4 -185 10 -185 6 0 10 68 10 185 0 117 -4 185 -10
185 -6 0 -10 -68 -10 -185z"/>
<path d="M7110 745 c0 -117 4 -185 10 -185 6 0 10 68 10 185 0 117 -4 185 -10
185 -6 0 -10 -68 -10 -185z"/>
<path d="M7560 745 c0 -117 4 -185 10 -185 6 0 10 68 10 185 0 117 -4 185 -10
185 -6 0 -10 -68 -10 -185z"/>
<path d="M6164 893 c43 -115 103 -243 114 -243 9 0 12 6 8 15 -48 127 -104
245 -115 245 -8 0 -11 -6 -7 -17z"/>
<path d="M730 600 c0 -7 193 -10 560 -10 367 0 560 3 560 10 0 7 -193 10 -560
10 -367 0 -560 -3 -560 -10z"/>
<path d="M2070 600 c0 -7 195 -10 566 -10 374 0 563 3 559 10 -9 14 -1125 14
-1125 0z"/>
<path d="M3420 600 c0 -6 45 -10 116 -10 74 0 113 4 109 10 -4 6 -53 10 -116
10 -66 0 -109 -4 -109 -10z"/>
<path d="M4540 600 c0 -6 45 -10 116 -10 74 0 113 4 109 10 -4 6 -53 10 -116
10 -66 0 -109 -4 -109 -10z"/>
<path d="M4990 600 c0 -6 45 -10 116 -10 74 0 113 4 109 10 -4 6 -53 10 -116
10 -66 0 -109 -4 -109 -10z"/>
<path d="M6340 600 c0 -6 118 -10 335 -10 217 0 335 4 335 10 0 6 -118 10
-335 10 -217 0 -335 -4 -335 -10z"/>
<path d="M7235 600 c-4 -6 35 -10 109 -10 71 0 116 4 116 10 0 6 -43 10 -109
10 -63 0 -112 -4 -116 -10z"/>
</g>
</svg>
